:SAMPLES-PER-SECOND 30
:FULLY-SPECIFIED
:DEGREES
167
root  -5.95887 37.8027 12.0332 -177.85 57.7948 179.974
RightUpLeg  -25.6732 -6.92771 -7.99933
RightLeg  23.8569 -5.08088 -2.67355
RightFoot  2.86237 -1.74152 14.0712
RightToes  -1.39699e-009 0 -3.6325e-017
Spine  13.5059 -0.965776 -12.2875
Spine1  22.7736 -3.93746 2.66105
HEad  -27.8097 45.9066 -21.0933
LeftShoulder1  1.90919 -5.32962 -14.7563
LeftArm  -0.739562 -18.7931 -64.2216
LeftForeArm  -12.4753 -72.8703 -44.8476
LeftHand  -0.806888 1.77695 25.5023
RightShoulder  0.651157 -0.116379 12.2282
RightArm  2.64155 -11.4385 60.1295
RightForeArm  136.735 72.6873 143.847
RightHand  -0.84757 3.38646 -11.426
LeftUpLeg  -8.31531 -2.508 7.47318
LeftLeg  30.7251 1.80658 1.51746
LeftFoot  -23.2638 -1.21961 -12.9669
LeftToes  3.40148e-010 1.80944e-010 1.01921e-010
168
root  -6.01436 37.791 12.036 -177.908 57.9326 -179.976
RightUpLeg  -25.6357 -6.81454 -8.01594
RightLeg  23.7754 -5.02549 -2.63774
RightFoot  2.89335 -1.75365 14.1381
RightToes  -1.39699e-009 0 -3.6325e-017
Spine  13.6517 -1.13932 -11.9625
Spine1  22.9516 -3.86794 2.06038
HEad  -27.54 45.9635 -20.9456
LeftShoulder1  1.87444 -5.29345 -14.4203
LeftArm  -1.02402 -19.3162 -64.8615
LeftForeArm  -11.8441 -73.1306 -45.8083
LeftHand  -0.431997 3.17767 22.6106
RightShoulder  0.652994 -0.122725 12.3292
RightArm  2.90123 -11.1189 60.2539
RightForeArm  136.875 72.5914 144.075
RightHand  -0.828603 3.32697 -11.2498
LeftUpLeg  -8.33999 -2.57859 7.41876
LeftLeg  30.9188 1.97403 1.635
LeftFoot  -23.3463 -1.2248 -12.9314
LeftToes  3.40148e-010 1.80944e-010 1.01921e-010
169
root  -6.05745 37.792 12.0366 -177.989 58.1005 179.953
RightUpLeg  -25.6259 -6.58688 -8.09612
RightLeg  23.6071 -5.08693 -2.64849
RightFoot  2.96715 -1.772 14.2133
RightToes  -1.39699e-009 0 -3.6325e-017
Spine  13.7781 -1.27928 -11.855
Spine1  22.9966 -3.8938 1.73882
HEad  -27.5257 46.1447 -21.0162
LeftShoulder1  1.84829 -5.21156 -14.311
LeftArm  -1.30548 -19.6401 -65.0793
LeftForeArm  -10.3048 -73.4059 -46.7748
LeftHand  -0.428929 3.19746 22.3292
RightShoulder  0.667144 -0.0414568 12.2776
RightArm  2.92454 -11.0197 60.485
RightForeArm  137.361 72.4542 144.442
RightHand  -0.833277 3.3566 -11.275
LeftUpLeg  -8.3587 -2.58786 7.30578
LeftLeg  30.9589 2.131 1.7386
LeftFoot  -23.3368 -1.22119 -12.9072
LeftToes  3.40148e-010 1.80944e-010 1.01921e-010
170
root  -6.0859 37.7975 12.0381 -178.063 58.3891 179.807
RightUpLeg  -25.6931 -6.33255 -8.18219
RightLeg  23.4248 -5.05539 -2.61352
RightFoot  3.02312 -1.7918 14.3159
RightToes  -1.39699e-009 0 -3.6325e-017
Spine  13.8928 -1.26889 -11.9678
Spine1  22.8912 -3.927 1.78661
HEad  -27.6811 46.2809 -21.3182
LeftShoulder1  1.87373 -5.26191 -14.4954
LeftArm  -1.55979 -19.7381 -64.8158
LeftForeArm  -8.74333 -73.6206 -47.5209
LeftHand  -0.678101 2.16089 24.2105
RightShoulder  0.660329 -0.0415999 12.0573
RightArm  2.75989 -11.0253 60.6564
RightForeArm  137.763 72.3084 144.807
RightHand  -0.835746 3.41215 -11.2398
LeftUpLeg  -8.36074 -2.38953 7.18467
LeftLeg  30.9009 2.21765 1.79123
LeftFoot  -23.3006 -1.21611 -12.896
LeftToes  3.40148e-010 1.80944e-010 1.01921e-010
171
root  -6.10127 37.8039 12.0387 -178.114 58.7272 179.696
RightUpLeg  -25.7535 -6.23694 -8.20287
RightLeg  23.2475 -4.81443 -2.48132
RightFoot  3.04107 -1.80179 14.377
RightToes  -1.39699e-009 0 -3.6325e-017
Spine  13.947 -1.17951 -12.1349
Spine1  22.851 -3.93421 1.97928
HEad  -27.8934 46.1953 -21.6076
LeftShoulder1  1.91855 -5.3605 -14.7898
LeftArm  -1.67854 -19.7603 -64.2989
LeftForeArm  -8.24031 -73.7478 -48.0342
LeftHand  -0.753723 1.89897 24.8586
RightShoulder  0.624359 -0.184157 11.7659
RightArm  2.49345 -10.9518 60.7035
RightForeArm  137.9 72.159 145.132
RightHand  -0.823813 3.38703 -11.114
LeftUpLeg  -8.29964 -2.08554 7.10938
LeftLeg  30.7967 2.25362 1.80835
LeftFoot  -23.2808 -1.21361 -12.8947
LeftToes  3.40148e-010 1.80944e-010 1.01921e-010
172
root  -6.11038 37.8112 12.0368 -178.149 59.0228 179.634
RightUpLeg  -25.7684 -6.33046 -8.16918
RightLeg  23.0644 -4.45344 -2.2945
RightFoot  3.0674 -1.8037 14.367
RightToes  -1.39699e-009 0 -3.6325e-017
Spine  13.9341 -1.13989 -12.2593
Spine1  22.9502 -3.96622 2.12276
HEad  -28.1502 45.986 -21.7687
LeftShoulder1  1.93581 -5.35808 -15.0096
LeftArm  -1.70793 -19.7728 -63.7898
LeftForeArm  -8.63221 -73.779 -48.2314
LeftHand  -0.572744 2.59985 23.62
RightShoulder  0.590196 -0.319376 11.4655
RightArm  2.20612 -10.8284 60.7389
RightForeArm  138.017 72.0059 145.456
RightHand  -0.8246 3.3146 -11.2116
LeftUpLeg  -8.21258 -1.82544 7.06135
LeftLeg  30.6965 2.29145 1.82673
LeftFoot  -23.256 -1.20986 -12.8915
LeftToes  3.40148e-010 1.80944e-010 1.01921e-010
173
root  -6.11591 37.8182 12.0329 -178.152 59.2901 179.614
RightUpLeg  -25.7741 -6.39496 -8.1165
RightLeg  22.8931 -4.1733 -2.14872
RightFoot  3.1387 -1.80918 14.3413
RightToes  -1.39699e-009 0 -3.6325e-017
Spine  13.9121 -1.18291 -12.305
Spine1  23.0371 -4.0266 2.14243
HEad  -28.4119 45.8464 -21.8402
LeftShoulder1  1.92091 -5.2822 -15.03
LeftArm  -1.84256 -19.6595 -63.4684
LeftForeArm  -9.05845 -73.7162 -47.9973
LeftHand  -0.498872 2.90339 23.0616
RightShoulder  0.589941 -0.292127 11.2789
RightArm  1.92332 -10.7647 60.7404
RightForeArm  138.28 71.9023 145.7
RightHand  -0.841092 3.32608 -11.4159
LeftUpLeg  -8.14647 -1.62068 7.03116
LeftLeg  30.6378 2.34835 1.85954
LeftFoot  -23.2229 -1.20726 -12.8913
LeftToes  3.40148e-010 1.80944e-010 1.01921e-010
174
root  -6.11373 37.8205 12.0287 -178.101 59.5412 179.68
RightUpLeg  -25.7824 -6.30711 -8.0401
RightLeg  22.8001 -4.05263 -2.08492
RightFoot  3.21499 -1.81659 14.3362
RightToes  -1.39699e-009 0 -3.6325e-017
Spine  13.917 -1.27975 -12.2289
Spine1  23.038 -4.06646 2.00286
HEad  -28.5472 45.7365 -21.7435
LeftShoulder1  1.89275 -5.22534 -14.8327
LeftArm  -2.12838 -19.3742 -63.3895
LeftForeArm  -9.22091 -73.6192 -47.5766
LeftHand  -0.616741 2.43372 24.0084
RightShoulder  0.621078 -0.14435 11.4053
RightArm  1.62554 -10.7092 60.4921
RightForeArm  138.462 71.9015 145.729
RightHand  -0.834499 3.40294 -11.2342
LeftUpLeg  -8.0794 -1.48783 7.04729
LeftLeg  30.6438 2.4394 1.91804
LeftFoot  -23.2302 -1.20971 -12.9077
LeftToes  3.40148e-010 1.80944e-010 1.01921e-010
175
root  -6.10363 37.8145 12.0223 -178.041 59.7257 179.828
RightUpLeg  -25.7623 -6.21883 -7.9371
RightLeg  22.8335 -3.97877 -2.05385
RightFoot  3.23324 -1.81378 14.3212
RightToes  -1.39699e-009 0 -3.6325e-017
Spine  13.9535 -1.39267 -12.0634
Spine1  23.0441 -4.08314 1.77975
HEad  -28.4869 45.4619 -21.3558
LeftShoulder1  1.86635 -5.19438 -14.5846
LeftArm  -2.38411 -19.0813 -63.4452
LeftForeArm  -9.18775 -73.5971 -47.4734
LeftHand  -0.691853 2.14529 24.5641
RightShoulder  0.652599 -0.0418933 11.8116
RightArm  1.30943 -10.5764 60.0052
RightForeArm  138.327 71.9508 145.612
RightHand  -0.803961 3.39193 -10.8481
LeftUpLeg  -7.9736 -1.52171 7.09564
LeftLeg  30.7213 2.60135 2.02668
LeftFoot  -23.3026 -1.22487 -12.9767
LeftToes  3.40148e-010 1.80944e-010 1.01921e-010
176
root  -6.09355 37.8013 12.0147 -178.048 59.8742 179.974
RightUpLeg  -25.7095 -6.21028 -7.83741
RightLeg  22.961 -3.8547 -2.00738
RightFoot  3.19472 -1.80677 14.2877
RightToes  -1.39699e-009 0 -3.6325e-017
Spine  14.0541 -1.44596 -11.9474
Spine1  23.084 -4.09901 1.67828
HEad  -28.3289 45.0219 -20.8457
LeftShoulder1  1.8577 -5.18285 -14.5065
LeftArm  -2.4759 -18.9491 -63.4711
LeftForeArm  -8.91879 -73.6999 -47.9044
LeftHand  -0.612564 2.4384 23.8855
RightShoulder  0.655658 -0.0756191 12.1187
RightArm  1.02551 -10.4415 59.6776
RightForeArm  138.089 71.9613 145.555
RightHand  -0.810214 3.32741 -11.005
LeftUpLeg  -7.82542 -1.67058 7.12669
LeftLeg  30.8561 2.8147 2.17301
LeftFoot  -23.4083 -1.24784 -13.0839
LeftToes  3.40148e-010 1.80944e-010 1.01921e-010
177
root  -6.08951 37.7838 12.0122 -178.132 60.1206 -179.937
RightUpLeg  -25.6752 -6.10622 -7.7659
RightLeg  23.1198 -3.7299 -1.96245
RightFoot  3.15104 -1.80316 14.2824
RightToes  -1.39699e-009 0 -3.6325e-017
Spine  14.229 -1.37454 -11.9848
Spine1  23.0752 -4.10102 1.81115
HEad  -28.2223 44.6744 -20.5856
LeftShoulder1  1.87893 -5.23492 -14.6331
LeftArm  -2.5012 -18.9575 -63.4032
LeftForeArm  -8.41568 -73.8554 -48.5622
LeftHand  -0.549074 2.69605 23.4568
RightShoulder  0.630165 -0.193347 12.0202
RightArm  0.842917 -10.3925 59.8049
RightForeArm  138.173 71.9601 145.57
RightHand  -0.871434 3.45485 -11.6518
LeftUpLeg  -7.65408 -1.70419 7.13308
LeftLeg  31.0215 2.994 2.30115
LeftFoot  -23.516 -1.27012 -13.1808
LeftToes  3.40148e-010 1.80944e-010 1.01921e-010
178
root  -6.08981 37.7646 12.0143 -178.249 60.4764 -179.919
RightUpLeg  -25.7101 -5.85499 -7.73084
RightLeg  23.2858 -3.64543 -1.93614
RightFoot  3.12843 -1.80364 14.3093
RightToes  -1.39699e-009 0 -3.6325e-017
Spine  14.3828 -1.24714 -12.1398
Spine1  23.0201 -4.09959 2.05381
HEad  -28.2176 44.6205 -20.6808
LeftShoulder1  1.91769 -5.34199 -14.8286
LeftArm  -2.60296 -19.0013 -63.2753
LeftForeArm  -8.01362 -73.9505 -48.9632
LeftHand  -0.59462 2.55642 24.1399
RightShoulder  0.603831 -0.277006 11.6645
RightArm  0.781678 -10.3621 60.1785
RightForeArm  138.569 72.0115 145.53
RightHand  -0.916794 3.75778 -11.8589
LeftUpLeg  -7.50342 -1.55992 7.11918
LeftLeg  31.1912 3.11299 2.39205
LeftFoot  -23.6149 -1.28871 -13.251
LeftToes  3.40148e-010 1.80944e-010 1.01921e-010
179
root  -6.09167 37.7477 12.0091 -178.386 60.7683 -179.993
RightUpLeg  -25.7955 -5.70525 -7.74684
RightLeg  23.4481 -3.5287 -1.89372
RightFoot  3.11373 -1.80044 14.2976
RightToes  -1.39699e-009 0 -3.6325e-017
Spine  14.4103 -1.22054 -12.297
Spine1  23.0292 -4.16177 2.20718
HEad  -28.2787 44.7618 -20.8694
LeftShoulder1  1.94304 -5.38848 -15.017
LeftArm  -2.72395 -19.0751 -63.122
LeftForeArm  -8.11348 -73.928 -48.8684
LeftHand  -0.646668 2.39828 24.8897
RightShoulder  0.603376 -0.244124 11.4358
RightArm  0.805631 -10.2958 60.4048
RightForeArm  138.795 72.036 145.517
RightHand  -0.893453 3.8469 -11.456
LeftUpLeg  -7.42184 -1.45224 7.04646
LeftLeg  31.3403 3.23877 2.48666
LeftFoot  -23.6834 -1.30391 -13.3202
LeftToes  3.40148e-010 1.80944e-010 1.01921e-010
180
root  -6.09611 37.7365 11.9923 -178.536 60.9102 179.875
RightUpLeg  -25.8602 -5.76419 -7.80275
RightLeg  23.5696 -3.35187 -1.81896
RightFoot  3.10029 -1.788 14.2173
RightToes  -1.39699e-009 0 -3.6325e-017
Spine  14.3529 -1.3307 -12.3716
Spine1  23.1254 -4.292 2.20397
HEad  -28.3666 44.8536 -20.9237
LeftShoulder1  1.93736 -5.28689 -15.2225
LeftArm  -2.70302 -19.2439 -62.9702
LeftForeArm  -8.72285 -73.8068 -48.3742
LeftHand  -0.628178 2.47824 24.8268
RightShoulder  0.628788 -0.116582 11.4906
RightArm  0.886387 -10.2688 60.4065
RightForeArm  138.635 71.9352 145.69
RightHand  -0.856925 3.57562 -11.3199
LeftUpLeg  -7.39242 -1.49838 6.91641
LeftLeg  31.4523 3.39868 2.60116
LeftFoot  -23.7124 -1.31543 -13.3956
LeftToes  3.40148e-010 1.80944e-010 1.01921e-010
